<svg xmlns="http://www.w3.org/2000/svg" viewBox="0 0 23 23"><defs><style>.cls-1{fill:#fff;}.cls-2{fill:#dfdfdf;}</style></defs><title>Asset 1</title><g id="Layer_2" data-name="Layer 2"><g id="Resources"><rect class="cls-1" width="23" height="23" rx="2.2"/><path class="cls-2" d="M3.66,4.26l.6-.6a.55.55,0,0,1,.77,0l6.47,6.47L18,3.66a.56.56,0,0,1,.78,0l.59.59a.57.57,0,0,1,0,.79L12.87,11.5,19.34,18a.57.57,0,0,1,0,.79l-.6.59a.55.55,0,0,1-.77,0L11.5,12.87,5,19.34a.55.55,0,0,1-.77,0l-.6-.6a.55.55,0,0,1,0-.77l6.47-6.47L3.66,5A.55.55,0,0,1,3.66,4.26Z"/></g></g></svg>